<?xml version="1.0" encoding="UTF-8" standalone="no"?>
<svg width="546px" height="782px" viewBox="0 0 546 782" version="1.1" xmlns="http://www.w3.org/2000/svg" xmlns:xlink="http://www.w3.org/1999/xlink">
    <!-- Generator: Sketch 3.6.1 (26313) - http://www.bohemiancoding.com/sketch -->
    <title>CALENDAR</title>
    <desc>Created with Sketch.</desc>
    <defs>
        <filter x="-50%" y="-50%" width="200%" height="200%" filterUnits="objectBoundingBox" id="filter-1">
            <feOffset dx="0" dy="0" in="SourceAlpha" result="shadowOffsetOuter1"></feOffset>
            <feGaussianBlur stdDeviation="20" in="shadowOffsetOuter1" result="shadowBlurOuter1"></feGaussianBlur>
            <feColorMatrix values="0 0 0 0 0   0 0 0 0 0   0 0 0 0 0  0 0 0 0.105 0" in="shadowBlurOuter1" type="matrix" result="shadowMatrixOuter1"></feColorMatrix>
            <feMerge>
                <feMergeNode in="shadowMatrixOuter1"></feMergeNode>
                <feMergeNode in="SourceGraphic"></feMergeNode>
            </feMerge>
        </filter>
        <linearGradient x1="37.3946306%" y1="0%" x2="63.1095837%" y2="100.999999%" id="linearGradient-2">
            <stop stop-color="#EFDF31" offset="0%"></stop>
            <stop stop-color="#FFF1A4" offset="100%"></stop>
        </linearGradient>
        <linearGradient x1="50%" y1="0%" x2="50%" y2="100%" id="linearGradient-3">
            <stop stop-color="#43E7DD" offset="0%"></stop>
            <stop stop-color="#20C9B7" offset="100%"></stop>
        </linearGradient>
    </defs>
    <g id="Page-1" stroke="none" stroke-width="1" fill="none" fill-rule="evenodd">
        <g id="CALENDAR">
            <rect id="Rectangle-63" fill="#FFFFFF" filter="url(#filter-1)" x="86" y="112" width="375" height="670"></rect>
            <g id="Group" transform="translate(315.000000, 275.500000) rotate(-180.000000) translate(-315.000000, -275.500000) translate(311.000000, 273.000000)"></g>
            <g id="Group-6" transform="translate(86.000000, 370.000000)"></g>
            <g id="FEALS" transform="translate(84.000000, 117.000000)">
                <g id="home">
                    <g id="Page-1">
                        <g id="home">
                            <g id="Status-Bar/Black/Charging" transform="translate(6.150685, 0.000000)">
                                <path d="M3.27226027,8.06042296 C4.801446,8.06042296 6.04109589,6.81990684 6.04109589,5.28965257 C6.04109589,3.75939834 4.801446,2.51888218 3.27226027,2.51888218 C1.74307459,2.51888218 0.503424658,3.75939834 0.503424658,5.28965257 C0.503424658,6.81990684 1.74307459,8.06042296 3.27226027,8.06042296 L3.27226027,8.06042296 Z M10.3202055,8.06042296 C11.8493912,8.06042296 13.0890411,6.81990684 13.0890411,5.28965257 C13.0890411,3.75939834 11.8493912,2.51888218 10.3202055,2.51888218 C8.79101976,2.51888218 7.55136986,3.75939834 7.55136986,5.28965257 C7.55136986,6.81990684 8.79101976,8.06042296 10.3202055,8.06042296 L10.3202055,8.06042296 Z M17.3681507,8.06042296 C18.8973364,8.06042296 20.1369863,6.81990684 20.1369863,5.28965257 C20.1369863,3.75939834 18.8973364,2.51888218 17.3681507,2.51888218 C15.838965,2.51888218 14.5993151,3.75939834 14.5993151,5.28965257 C14.5993151,6.81990684 15.838965,8.06042296 17.3681507,8.06042296 L17.3681507,8.06042296 Z M17.3681507,7.55664653 C18.6193026,7.55664653 19.6335616,6.54167877 19.6335616,5.28965257 C19.6335616,4.03762637 18.6193026,3.02265861 17.3681507,3.02265861 C16.1169987,3.02265861 15.1027397,4.03762637 15.1027397,5.28965257 C15.1027397,6.54167877 16.1169987,7.55664653 17.3681507,7.55664653 L17.3681507,7.55664653 Z M24.4160959,8.06042296 C25.9452816,8.06042296 27.1849315,6.81990684 27.1849315,5.28965257 C27.1849315,3.75939834 25.9452816,2.51888218 24.4160959,2.51888218 C22.8869102,2.51888218 21.6472603,3.75939834 21.6472603,5.28965257 C21.6472603,6.81990684 22.8869102,8.06042296 24.4160959,8.06042296 L24.4160959,8.06042296 Z M24.4160959,7.55664653 C25.6672478,7.55664653 26.6815068,6.54167877 26.6815068,5.28965257 C26.6815068,4.03762637 25.6672478,3.02265861 24.4160959,3.02265861 C23.164944,3.02265861 22.1506849,4.03762637 22.1506849,5.28965257 C22.1506849,6.54167877 23.164944,7.55664653 24.4160959,7.55664653 L24.4160959,7.55664653 Z M31.4640411,8.06042296 C32.9932268,8.06042296 34.2328767,6.81990684 34.2328767,5.28965257 C34.2328767,3.75939834 32.9932268,2.51888218 31.4640411,2.51888218 C29.9348554,2.51888218 28.6952055,3.75939834 28.6952055,5.28965257 C28.6952055,6.81990684 29.9348554,8.06042296 31.4640411,8.06042296 L31.4640411,8.06042296 Z M31.4640411,7.55664653 C32.715193,7.55664653 33.7294521,6.54167877 33.7294521,5.28965257 C33.7294521,4.03762637 32.715193,3.02265861 31.4640411,3.02265861 C30.2128892,3.02265861 29.1986301,4.03762637 29.1986301,5.28965257 C29.1986301,6.54167877 30.2128892,7.55664653 31.4640411,7.55664653 L31.4640411,7.55664653 Z" id="Mobile-Signal" fill="#030303"></path>
                                <text id="Sketch" fill="#030303" font-family=".AppleSystemUIFont" font-size="10.2588428" font-weight="normal">
                                    <tspan x="38.260274" y="10.5037764" fill="#000000">Sketch</tspan>
                                </text>
                                <path d="M90.7618483,7.49468636 C90.2402533,6.89714836 89.4609394,6.51777075 88.5902175,6.51777075 C87.7358498,6.51777075 86.9694886,6.88303103 86.4482485,7.4612491 L88.6254332,9.57175227 L90.7618483,7.49468636 L90.7618483,7.49468636 Z M92.9558491,5.36163466 C91.8697436,4.22340534 90.3158321,3.5107736 88.5902175,3.5107736 C86.8792879,3.5107736 85.3371512,4.21132811 84.2524155,5.33266863 L85.3499103,6.39655015 C86.1532817,5.54695215 87.3075771,5.01427219 88.5902175,5.01427219 C89.8883691,5.01427219 91.0550526,5.55991351 91.8595162,6.42751155 L92.9558491,5.36163466 L92.9558491,5.36163466 L92.9558491,5.36163466 Z M95.1472603,3.23110047 C93.4990055,1.55106389 91.1707793,0.503776435 88.5902175,0.503776435 C86.0226987,0.503776435 83.7049712,1.54050406 82.0582192,3.20567486 L83.1552398,4.26909663 C84.5210529,2.87587483 86.4509941,2.00727502 88.5902175,2.00727502 C90.743304,2.00727502 92.6843869,2.88716904 94.0516771,4.29624848 L95.1472603,3.23110047 L95.1472603,3.23110047 Z" id="Wi-Fi" fill="#030303"></path>
                                <text id="9:41-AM" fill="#030303" font-family=".AppleSystemUIFont" font-size="10.2588428" font-weight="normal">
                                    <tspan x="159.339803" y="10.5037764" fill="#000000">9:41 AM</tspan>
                                </text>
                                <text id="100%" fill="#030303" font-family=".AppleSystemUIFont" font-size="10.2588428" font-weight="normal">
                                    <tspan x="299.893609" y="10.5037764" fill="#000000">100%</tspan>
                                </text>
                                <path d="M334.771067,0.503776435 C333.940462,0.503776435 333.267123,1.17684347 333.267123,2.02044903 L333.267123,8.55885614 C333.267123,9.39649127 333.945115,10.0755287 334.771067,10.0755287 L354.417289,10.0755287 C355.247894,10.0755287 355.921233,9.40246162 355.921233,8.55885614 L355.921233,2.02044903 C355.921233,1.18281389 355.243241,0.503776435 354.417289,0.503776435 L334.771067,0.503776435 L334.771067,0.503776435 Z M356.424658,3.52643505 L356.424658,7.05287009 L357.179795,7.05287009 C357.596846,7.05287009 357.934932,6.71474069 357.934932,6.3050039 L357.934932,4.27430122 C357.934932,3.86126613 357.599752,3.52643505 357.179795,3.52643505 L356.424658,3.52643505 L356.424658,3.52643505 Z M334.785605,1.00755287 C334.225004,1.00755287 333.770548,1.46800143 333.770548,2.02361004 L333.770548,8.55569505 C333.770548,9.11684799 334.222682,9.57175227 334.785605,9.57175227 L354.402751,9.57175227 C354.963352,9.57175227 355.417808,9.11130373 355.417808,8.55569505 L355.417808,2.02361004 C355.417808,1.46245717 354.965674,1.00755287 354.402751,1.00755287 L334.785605,1.00755287 L334.785605,1.00755287 Z" id="Battery" fill="#030303"></path>
                                <rect id="Battery-Level" fill="#44DB5E" x="334.273973" y="1.51132931" width="20.640411" height="7.55664653" rx="0.5"></rect>
                                <path d="M364.982877,0 L360.955479,5.54154079 L363.472603,5.54154079 L361.962329,10.0755287 L366.493151,4.03021148 L363.976027,4.03021148 L364.982877,0 L364.982877,0 Z" id="Charge" fill="#010101"></path>
                            </g>
                            <g id="Group-2" transform="translate(33.335616, 44.332326)" stroke="#20C9B7">
                                <path d="M0.503424658,0.503776435 L15.6061644,0.503776435" id="Line"></path>
                                <path d="M0.503424658,11.586858 L15.6061644,11.586858" id="Line"></path>
                            </g>
                            <g id="Group" transform="translate(328.342466, 43.324773)" stroke="#20C9B7">
                                <path d="M0.503424658,7.55664653 L15.6061644,7.55664653" id="Line"></path>
                                <path d="M8.05479452,15.1132931 L8.05479452,0" id="Line"></path>
                            </g>
                            <path d="M0.143217266,584.776065 C12.125887,548.864586 11.8188582,517.204531 35.1696278,513.684901 C71.21938,508.251172 96.1379404,455.283164 125.439581,452.672053 C152.784693,450.235291 201.133094,479.511747 228.348289,479.511747 C248.955562,479.511747 315.563978,398.276812 342.243058,398.276812 C368.922137,398.276812 377.68397,479.511744 377.68397,479.511744 L377.68397,618.657351 L0.143217252,618.657351" id="Path-12" fill="url(#linearGradient-2)"></path>
                            <path d="M0.120198568,494.785871 C15.0435703,447.644782 43.6516729,404.434782 67.9443976,404.434782 C93.6312297,404.434782 116.828001,446.776437 148.240799,453.978803 C173.661244,459.807235 199.478148,421.480379 225.181703,426.179418 C244.130458,429.643567 265.86924,493.429846 307.671984,510.882853 C349.474728,528.335859 377.684819,511.55892 377.684819,511.55892 L377.684819,618.683058 L0.120198568,618.683058" id="Path-12" fill="url(#linearGradient-3)"></path>
                            <rect id="Rectangle-6" fill="#4A4A4A" x="0.109589041" y="618.637462" width="377.568493" height="48.3625378"></rect>
                            <text id="AM-I-OK?" fill="#FFFFFF" font-family="Helvetica" font-size="12.0821918" font-weight="normal">
                                <tspan x="159.493422" y="645.758308" fill="#000000">AM I OK?</tspan>
                            </text>
                            <g id="Group-6" transform="translate(60.520548, 115.868580)" fill="#000000">
                                <path d="M52.7179565,10.0068886 L30.1181032,32.6390643 C29.8372843,32.9200793 29.4936944,33.0754641 29.1379906,33.1746459 L29.1379906,33.2121145 L18.1232877,35.2651769 L20.1914352,24.2604096 L20.229979,24.2604096 C20.326889,23.9055593 20.4832665,23.5606272 20.7640853,23.2807142 L43.3639387,0.646334473 C44.2251161,-0.215444825 45.6237037,-0.215444825 46.48378,0.646334473 L52.7179565,6.88707125 C53.5780328,7.74885055 53.5780328,9.14510933 52.7179565,10.0068886 L52.7179565,10.0068886 L52.7179565,10.0068886 L52.7179565,10.0068886 Z M23.7561817,31.9657304 C23.0910266,31.0918289 22.3113415,30.312701 21.4391516,29.6470813 L20.8455778,32.559719 L23.7561817,31.9657304 L23.7561817,31.9657304 L23.7561817,31.9657304 L23.7561817,31.9657304 Z M22.5293891,24.2604096 L21.6737178,28.4789405 C22.9379529,29.3671683 24.0358991,30.4647798 24.9224055,31.7287961 L29.1379906,30.873629 L29.1434969,30.8548947 C27.9156031,27.8651156 25.5358017,25.4836514 22.5481103,24.2548995 L22.5293891,24.2604096 L22.5293891,24.2604096 L22.5293891,24.2604096 L22.5293891,24.2604096 Z M45.7007912,2.97159575 C45.2713038,2.54180811 44.5731111,2.54180811 44.1436237,2.97159575 L23.6064116,23.5198524 C24.3365404,23.8658866 25.0171129,24.285756 25.6646479,24.7530124 L46.5663738,3.83778312 L45.7007912,2.97159575 L45.7007912,2.97159575 L45.7007912,2.97159575 L45.7007912,2.97159575 Z M47.3449575,4.61691095 L26.5357367,25.4373665 C27.0467168,25.8759703 27.5224568,26.3520427 27.9618555,26.8644818 L48.7677726,6.04072022 L47.3449575,4.61691095 L47.3449575,4.61691095 L47.3449575,4.61691095 L47.3449575,4.61691095 Z M50.3766989,7.6507708 L49.5463563,6.81984806 L28.6457318,27.7361793 C29.1027506,28.3709426 29.5168206,29.0343584 29.8582082,29.746263 L50.3766989,9.2112305 C50.8094902,8.78034086 50.8094902,8.08276247 50.3766989,7.6507708 L50.3766989,7.6507708 L50.3766989,7.6507708 L50.3766989,7.6507708 Z" id="Shape"></path>
                                <path d="M235.549455,27.8654794 C235.549455,27.8654794 232.759675,27.0383436 229.711081,27.0383436 C227.116682,27.0383436 221.907134,27.6370473 220.410246,27.815718 L220.410246,10.02701 C220.410246,9.97372221 220.398108,9.92356902 220.379706,9.87694224 C221.56727,9.42673903 225.339054,8.1137443 228.936207,8.1137443 C233.276518,8.1137443 235.549847,10.02701 235.549847,10.02701 L235.549847,27.8654794 L235.549455,27.8654794 L235.549455,27.8654794 L235.549455,27.8654794 Z M204.444087,27.8654794 L204.444087,10.02701 C204.444087,10.02701 206.717415,8.1137443 211.058119,8.1137443 C214.654879,8.1137443 218.426271,9.42673903 219.613837,9.87694224 C219.595826,9.92356902 219.583688,9.97372221 219.583688,10.02701 L219.583688,27.815718 C218.0868,27.6370473 212.876468,27.0383436 210.283244,27.0383436 C207.233867,27.0383436 204.444087,27.8654794 204.444087,27.8654794 L204.444087,27.8654794 L204.444087,27.8654794 L204.444087,27.8654794 Z M236.879936,8.44405005 C236.588624,8.1983778 233.886551,6.04531722 228.936207,6.04531722 C225.300683,6.04531722 221.586065,7.23488809 219.996771,7.81243337 C218.407477,7.23488809 214.693251,6.04531722 211.057727,6.04531722 C206.1066,6.04531722 203.40531,8.1983778 203.113215,8.44405005 C202.646489,8.83665546 202.376712,9.41615985 202.376712,10.02701 L202.376712,27.8654794 C202.376712,28.5178626 202.684469,29.1326309 203.206794,29.5228854 C203.568194,29.7928506 204.003203,29.9339064 204.444087,29.9339064 C204.640253,29.9339064 204.837984,29.9064789 205.031017,29.8484893 C205.053336,29.8418284 207.589784,29.1063788 210.282853,29.1063788 C213.170129,29.1063788 219.677268,29.9100053 219.742656,29.9178418 C219.82684,29.9280291 219.911805,29.9335147 219.996771,29.9335147 C220.081346,29.9335147 220.166703,29.9280291 220.250886,29.9178418 C220.316274,29.9096135 226.825371,29.1063788 229.711081,29.1063788 C232.428034,29.1063788 234.937466,29.8414365 234.962525,29.8484893 C235.155167,29.9060871 235.35329,29.9339064 235.549455,29.9339064 C235.990338,29.9339064 236.424565,29.7932424 236.785965,29.5228854 C237.309073,29.1326309 237.616438,28.5178626 237.616438,27.8654794 L237.616438,10.02701 C237.616438,9.41615985 237.347053,8.83665546 236.879936,8.44405005 L236.879936,8.44405005 L236.879936,8.44405005 L236.879936,8.44405005 Z" id="Shape"></path>
                                <g id="Group-3" transform="translate(210.431507, 130.981873)">
                                    <path d="M9.00570776,35.2643505 C13.8609589,35.2643505 17.8156392,31.3069067 17.8156392,26.4482628 L17.8156392,8.81608761 C17.8156392,3.95744378 13.8609589,0 9.00570776,0 C4.15045662,0 0.195776255,3.95744378 0.195776255,8.81608761 L0.195776255,26.4482628 C0.195776255,31.3069067 4.15045662,35.2643505 9.00570776,35.2643505 L9.00570776,35.2643505 L9.00570776,35.2643505 Z M2.15353881,18.1415492 L15.8578767,18.1415492 L15.8578767,26.4874455 C15.8578767,30.2097935 12.7646119,33.3052199 9.00570776,33.3052199 C5.24680365,33.3052199 2.15353881,30.2097935 2.15353881,26.4482628 L2.15353881,18.1415492 L2.15353881,18.1415492 L2.15353881,18.1415492 Z M9.00570776,1.95913058 C12.7646119,1.95913058 15.8578767,5.0545569 15.8578767,8.81608761 L15.8578767,17.1619839 L2.15353881,17.1619839 L2.15353881,8.81608761 C2.15353881,5.0545569 5.24680365,1.95913058 9.00570776,1.95913058 L9.00570776,1.95913058 L9.00570776,1.95913058 Z" id="Shape"></path>
                                    <path d="M4.11130137,13.7139141 C4.38538813,13.7139141 4.62031964,13.4788184 4.62031964,13.2045402 L4.62031964,8.81608761 C4.62031964,6.38676569 6.57808219,4.38845251 9.04486301,4.38845251 C9.31894978,4.38845251 9.55388128,4.15335683 9.55388128,3.87907855 C9.55388128,3.60480027 9.31894978,3.36970459 9.04486301,3.36970459 C6.06906393,3.36970459 3.64143836,5.79902652 3.64143836,8.776905 L3.64143836,13.2045402 C3.64143836,13.4788184 3.83721461,13.7139141 4.11130137,13.7139141 L4.11130137,13.7139141 L4.11130137,13.7139141 Z" id="Shape"></path>
                                </g>
                                <g id="Group-4" transform="translate(16.109589, 130.981873)">
                                    <path d="M39.5322356,33.3611127 L2.51549456,33.3611127 L9.77384166,22.9436087 L12.723614,27.3526898 C12.889448,27.601096 13.1729205,27.7437091 13.4709035,27.7286699 C13.7683683,27.7136308 14.0362938,27.5435321 14.1772527,27.2811238 L18.3785536,19.3990229 L21.3905137,24.758167 C21.5433919,25.0293913 21.8372291,25.1948226 22.1450585,25.1906738 C22.4570336,25.1844508 22.7399879,25.008129 22.8835379,24.7317187 L26.6199854,17.4905992 C26.0628867,17.3376142 25.5451738,17.0897265 25.0849844,16.7645685 L22.0978993,22.5531079 L19.0988951,17.2162633 C18.9470533,16.9460762 18.6558074,16.7811634 18.3495327,16.7837565 C18.0401486,16.786868 17.7566761,16.9595596 17.6110531,17.2328583 L13.346528,25.2321613 L10.4926284,20.9667307 C10.3366408,20.7338823 10.0759705,20.5928249 9.79560737,20.590232 L9.7878339,20.590232 C9.51058017,20.590232 9.25042808,20.7261034 9.09184932,20.9532473 L1.73814766,31.5086971 L1.73814766,1.05481895 C1.73814766,0.58601053 1.35828415,0.205881575 0.889803082,0.205881575 C0.421322018,0.205881575 0.0414585012,0.58601053 0.0414585012,1.05481895 L0.0414585012,34.2079757 L0.0414585012,34.2100501 C0.0414585012,34.220422 0.0424949638,34.2292381 0.043013195,34.2396099 C0.0435314263,34.2546491 0.0440496575,34.2712441 0.0456043513,34.2862833 C0.0466408138,34.3013226 0.0492319702,34.3168804 0.0513048953,34.3308823 C0.0533778203,34.34281 0.0549325141,34.3552563 0.0570054392,34.3671839 C0.0595965955,34.3832603 0.0642606769,34.3993367 0.0678882957,34.4159317 C0.0704794521,34.4263035 0.0730706084,34.437194 0.076179996,34.4475658 C0.0808440773,34.4636422 0.0865446213,34.4792001 0.0917269339,34.4952765 C0.0953545528,34.5056483 0.0989821716,34.5155016 0.102609791,34.5258734 C0.108828565,34.5398755 0.115047341,34.5543961 0.121266116,34.5694353 C0.126448428,34.5798071 0.132148973,34.5917349 0.137849517,34.6015881 C0.144068291,34.6145529 0.15132353,34.625962 0.158060536,34.6378896 C0.165315773,34.6498173 0.17205278,34.6622636 0.179826249,34.6741912 C0.187081487,34.684563 0.193818493,34.6944163 0.201591962,34.7047882 C0.210401893,34.717753 0.219211825,34.7301992 0.228539988,34.7410898 C0.236313457,34.7514616 0.244605157,34.7602777 0.253415088,34.7706495 C0.263261482,34.7810214 0.272589645,34.7919118 0.282954271,34.8028024 C0.293837127,34.8131742 0.304201753,34.8230275 0.314566378,34.8323622 C0.32389454,34.8416968 0.333222703,34.8505129 0.343069097,34.8588104 C0.357061342,34.870738 0.372090049,34.8821472 0.387118755,34.8920004 C0.393337531,34.8971863 0.398519843,34.9023723 0.404738618,34.9060024 C0.405775081,34.9070396 0.406811543,34.9070396 0.407848005,34.9080768 C0.439978344,34.9303763 0.474181607,34.9506014 0.510457796,34.967715 C0.517194803,34.9718638 0.523931809,34.9749753 0.530150585,34.9780869 C0.565390311,34.9941633 0.601666498,35.0097211 0.63897915,35.0206115 C0.639497381,35.0216487 0.639497381,35.0216487 0.640015613,35.0216487 C0.675255339,35.0325392 0.711531527,35.0397996 0.748844178,35.0460226 C0.758172341,35.048097 0.767500504,35.0501714 0.776828667,35.0512086 C0.813104855,35.0553573 0.849899275,35.0595061 0.887211926,35.0595061 L0.888766619,35.0595061 L0.888766619,35.0595061 L0.888766619,35.0595061 L39.5311991,35.0595061 C39.9996802,35.0595061 40.3790254,34.6788586 40.3790254,34.2105686 C40.3800619,33.7407231 40.0012348,33.3611127 39.5322356,33.3611127 L39.5322356,33.3611127 L39.5322356,33.3611127 Z" id="Shape"></path>
                                    <path d="M24.5957741,12.9757252 C24.5988834,13.016694 24.6019929,13.0581815 24.6061387,13.0991504 C24.6092481,13.1219685 24.6118393,13.144268 24.6154669,13.1670862 C24.6206492,13.2044249 24.6258315,13.2422822 24.631532,13.2791023 C24.6351596,13.3019204 24.6398237,13.3252571 24.6434513,13.3480752 C24.6507066,13.3848953 24.6574436,13.4217155 24.6662535,13.4580171 C24.6709176,13.4803165 24.6760999,13.5015788 24.680764,13.5233598 C24.6906104,13.5617357 24.7004568,13.5990745 24.7108214,13.6364132 C24.716522,13.6561197 24.7217043,13.6753077 24.7274048,13.6950142 C24.7398423,13.7370203 24.7538346,13.7785078 24.7678268,13.8194767 C24.7730092,13.8334786 24.7776732,13.8479993 24.7818191,13.8620013 C24.8227594,13.9750546 24.868882,14.0855151 24.9217416,14.1928639 C24.9238145,14.196494 24.9248509,14.2001242 24.9269238,14.2037543 C24.9512807,14.2530207 24.976674,14.3012499 25.0031038,14.3494791 C25.0088044,14.3593324 25.0139867,14.3691856 25.0196873,14.3785203 C25.0435259,14.4200078 25.0678827,14.4614952 25.0932761,14.5014269 C25.1005313,14.512836 25.1072683,14.5237264 25.1145236,14.5346169 C25.1393987,14.5735114 25.1658285,14.6124059 25.1922583,14.6507819 C25.1995135,14.6611537 25.2062505,14.671007 25.2135057,14.6808602 C25.2425267,14.720792 25.2715477,14.7596864 25.3021233,14.7980624 C25.3083421,14.8053226 25.3135243,14.8131015 25.3197432,14.8203619 C25.3539464,14.8639237 25.3907408,14.906967 25.427017,14.9484545 C25.4285717,14.9500102 25.4301265,14.9520846 25.4316811,14.9536404 C25.9276284,15.510091 26.6075478,15.8990361 27.3755665,16.0255729 L27.3755665,16.0255729 L27.3771213,16.0255729 C27.4605565,16.0390563 27.5455465,16.0499468 27.6315728,16.0572071 C27.6424557,16.0577257 27.6538568,16.0587629 27.6652578,16.0598001 C27.7492113,16.0660232 27.8342012,16.070172 27.9207458,16.070172 C29.763058,16.070172 31.2566005,14.5761043 31.2566005,12.7325049 C31.2566005,12.6754596 31.2550459,12.6178957 31.2519364,12.5613691 C31.2509,12.5385509 31.2483088,12.5157329 31.2467542,12.4934333 C31.2441629,12.4597247 31.24209,12.4260161 31.2389807,12.3917891 C31.2358713,12.3653408 31.2317254,12.3388925 31.2286161,12.3124443 C31.2244702,12.283403 31.2213608,12.2543618 31.2177331,12.2258392 C31.2125509,12.1926492 31.2063321,12.1594592 31.2001133,12.1262692 C31.1959675,12.1050069 31.1928581,12.0837446 31.1892304,12.0619636 C31.1809387,12.0241063 31.1721288,11.986249 31.1628006,11.9489102 C31.1591731,11.9333525 31.1560636,11.9167575 31.1519178,11.9017183 C31.141035,11.858675 31.1285974,11.8166689 31.1161599,11.7746629 C31.1130505,11.764291 31.1104593,11.7539191 31.1073499,11.7435473 C31.0933576,11.6984297 31.0772926,11.6538306 31.0617456,11.6092316 C31.0596727,11.6030085 31.0570815,11.5962667 31.0550086,11.5895251 C31.0379069,11.5428516 31.0197688,11.4966968 31.0011125,11.4510606 C30.9990396,11.4469118 30.9974848,11.4427631 30.9954119,11.4386143 C30.975201,11.3898666 30.9534352,11.3411188 30.9306331,11.2934082 C30.9301148,11.2928896 30.9301148,11.2923711 30.9295966,11.2918525 C30.5191574,10.434099 29.7526934,9.78015273 28.8229865,9.51930025 L28.8229865,9.51930025 C28.8224683,9.51930025 28.8219501,9.51930025 28.8214318,9.51878165 C28.6809912,9.47936855 28.5364046,9.44877155 28.3892269,9.42854641 C28.3809352,9.42750922 28.3731618,9.42647203 28.3648701,9.42491626 C28.3047553,9.41713735 28.243604,9.41091423 28.1819344,9.4057283 C28.1658693,9.40469111 28.1492858,9.40313533 28.1321842,9.40209815 C28.0617048,9.3979494 27.9917435,9.39483783 27.9202276,9.39483783 C26.0779155,9.39483783 24.584373,10.889424 24.584373,12.7325049 C24.584373,12.7947361 24.5864459,12.8559301 24.5900735,12.9171241 C24.5921464,12.9363121 24.5942194,12.9555001 24.5957741,12.9757252 L24.5957741,12.9757252 L24.5957741,12.9757252 Z" id="Shape"></path>
                                    <path d="M34.3400766,2.52762418 C34.5551425,2.11119369 34.3918997,1.59882342 33.97576,1.38360716 C33.5596202,1.1689095 33.048126,1.33174783 32.83306,1.74869691 L29.5656119,8.08072219 C30.1082001,8.27363893 30.6072567,8.5578281 31.0441257,8.91617614 L34.3400766,2.52762418 L34.3400766,2.52762418 L34.3400766,2.52762418 Z" id="Shape"></path>
                                </g>
                                <g id="ACTIVITIES" transform="translate(0.000000, 53.400302)" font-size="12.0821918" font-family="Helvetica" font-weight="normal">
                                    <text>
                                        <tspan x="0.147" y="11">ACTIVITIES</tspan>
                                    </text>
                                </g>
                                <g id="MY-MOOD" transform="translate(1.006849, 184.382175)" font-size="12.0821918" font-family="Helvetica" font-weight="normal">
                                    <text>
                                        <tspan x="0.879986301" y="11">MY MOOD</tspan>
                                    </text>
                                </g>
                                <g id="MEDICATION" transform="translate(177.205479, 184.382175)" font-size="12.0821918" font-family="Helvetica" font-weight="normal">
                                    <text>
                                        <tspan x="0" y="11">MEDICATION</tspan>
                                    </text>
                                </g>
                                <g id="JOURNAL" transform="translate(188.280822, 47.354985)" font-size="12.0821918" font-family="Helvetica" font-weight="normal">
                                    <text>
                                        <tspan x="0.668547945" y="11">JOURNAL</tspan>
                                    </text>
                                </g>
                            </g>
                            <rect id="Rectangle-11" fill="#20C9B7" x="33.3356164" y="365.741692" width="10.0684932" height="10.0755287"></rect>
                            <text id="MY-MOOD" fill="#000000" font-family="Helvetica" font-size="10.0684932" font-weight="normal">
                                <tspan x="53.4726027" y="373.726586">MY MOOD</tspan>
                            </text>
                            <rect id="Rectangle-11" fill="#EFDF31" x="159.191781" y="365.741692" width="10.0684932" height="10.0755287"></rect>
                            <text id="MY-MOOD" fill="#000000" font-family="Helvetica" font-size="10.0684932" font-weight="normal">
                                <tspan x="179.328767" y="373.726586">MY MOOD</tspan>
                            </text>
                            <ellipse id="Oval-9" fill="#20C9B7" cx="189.39726" cy="50.3776435" rx="13.0890411" ry="13.0981873"></ellipse>
                            <ellipse id="Oval-10" fill="#DE4646" cx="291.089041" cy="249.873112" rx="8.05479452" ry="8.06042296"></ellipse>
                            <text id="1" fill="#FFFFFF" font-family="Helvetica" font-size="10.0684932" font-weight="normal">
                                <tspan x="288.587021" y="252.820242" fill="#000000">1</tspan>
                            </text>
                        </g>
                    </g>
                </g>
            </g>
        </g>
    </g>
</svg>