<?xml version="1.0" encoding="UTF-8" standalone="no"?>
<svg width="375px" height="667px" viewBox="0 0 375 667" version="1.1" xmlns="http://www.w3.org/2000/svg" xmlns:xlink="http://www.w3.org/1999/xlink">
    <!-- Generator: Sketch 3.6.1 (26313) - http://www.bohemiancoding.com/sketch -->
    <title>home</title>
    <desc>Created with Sketch.</desc>
    <defs>
        <linearGradient x1="0%" y1="0%" x2="101.999998%" y2="100.999999%" id="linearGradient-1">
            <stop stop-color="#EFDF31" offset="0%"></stop>
            <stop stop-color="#FFF1A4" offset="100%"></stop>
        </linearGradient>
        <linearGradient x1="50%" y1="0%" x2="50%" y2="100%" id="linearGradient-2">
            <stop stop-color="#43E7DD" offset="0%"></stop>
            <stop stop-color="#20C9B7" offset="100%"></stop>
        </linearGradient>
    </defs>
    <g id="Page-1" stroke="none" stroke-width="1" fill="none" fill-rule="evenodd">
        <g id="home">
            <g id="Status-Bar/Black/Charging">
                <path d="M9.25,13 C10.7687831,13 12,11.7687831 12,10.25 C12,8.73121694 10.7687831,7.5 9.25,7.5 C7.73121694,7.5 6.5,8.73121694 6.5,10.25 C6.5,11.7687831 7.73121694,13 9.25,13 Z M16.25,13 C17.7687831,13 19,11.7687831 19,10.25 C19,8.73121694 17.7687831,7.5 16.25,7.5 C14.7312169,7.5 13.5,8.73121694 13.5,10.25 C13.5,11.7687831 14.7312169,13 16.25,13 Z M23.25,13 C24.7687831,13 26,11.7687831 26,10.25 C26,8.73121694 24.7687831,7.5 23.25,7.5 C21.7312169,7.5 20.5,8.73121694 20.5,10.25 C20.5,11.7687831 21.7312169,13 23.25,13 Z M23.25,12.5 C24.4926407,12.5 25.5,11.4926407 25.5,10.25 C25.5,9.00735931 24.4926407,8 23.25,8 C22.0073593,8 21,9.00735931 21,10.25 C21,11.4926407 22.0073593,12.5 23.25,12.5 Z M30.25,13 C31.7687831,13 33,11.7687831 33,10.25 C33,8.73121694 31.7687831,7.5 30.25,7.5 C28.7312169,7.5 27.5,8.73121694 27.5,10.25 C27.5,11.7687831 28.7312169,13 30.25,13 Z M30.25,12.5 C31.4926407,12.5 32.5,11.4926407 32.5,10.25 C32.5,9.00735931 31.4926407,8 30.25,8 C29.0073593,8 28,9.00735931 28,10.25 C28,11.4926407 29.0073593,12.5 30.25,12.5 Z M37.25,13 C38.7687831,13 40,11.7687831 40,10.25 C40,8.73121694 38.7687831,7.5 37.25,7.5 C35.7312169,7.5 34.5,8.73121694 34.5,10.25 C34.5,11.7687831 35.7312169,13 37.25,13 Z M37.25,12.5 C38.4926407,12.5 39.5,11.4926407 39.5,10.25 C39.5,9.00735931 38.4926407,8 37.25,8 C36.0073593,8 35,9.00735931 35,10.25 C35,11.4926407 36.0073593,12.5 37.25,12.5 Z" id="Mobile-Signal" fill="#030303"></path>
                <text id="Carrier" font-family=".AppleSystemUIFont" font-size="12" font-weight="normal" fill="#030303">
                    <tspan x="44" y="15.5">Sketch</tspan>
                </text>
                <path d="M96.1444208,12.4385043 C95.626374,11.8454456 94.8523616,11.4689119 93.987563,11.4689119 C93.1390073,11.4689119 92.3778594,11.8314341 91.8601652,12.4053177 L94.0225391,14.5 L96.1444208,12.4385043 Z M98.3234964,10.3214425 C97.2447794,9.19174563 95.7014387,8.48445596 93.987563,8.48445596 C92.2882723,8.48445596 90.7566264,9.17975893 89.6792698,10.2926936 L90.7692987,11.3486 C91.567205,10.5053708 92.713648,9.97668394 93.987563,9.97668394 C95.2768836,9.97668394 96.4356305,10.518235 97.2346215,11.3793293 L98.3234964,10.3214425 L98.3234964,10.3214425 Z M100.5,8.20687933 C98.8629578,6.53943672 96.5505699,5.5 93.987563,5.5 C91.4375103,5.5 89.1355496,6.52895605 87.5,8.18164431 L88.5895579,9.23709441 C89.9460798,7.85431655 91.8628921,6.99222798 93.987563,6.99222798 C96.1260026,6.99222798 98.0538809,7.86552609 99.4118698,9.26404272 L100.5,8.20687933 Z" id="Wi-Fi" fill="#030303"></path>
                <text id="9:41-AM" font-family=".AppleSystemUIFont" font-size="12" font-weight="normal" fill="#030303">
                    <tspan x="164.255859" y="15.5">9:41 AM</tspan>
                </text>
                <text id="100%" font-family=".AppleSystemUIFont" font-size="12" font-weight="normal" fill="#030303">
                    <tspan x="303.853516" y="15.5">100%</tspan>
                </text>
                <path d="M338.493713,5.5 C337.668758,5.5 337,6.16802155 337,7.00530324 L337,13.4946968 C337,14.3260528 337.67338,15 338.493713,15 L358.006287,15 C358.831242,15 359.5,14.3319784 359.5,13.4946968 L359.5,7.00530324 C359.5,6.17394722 358.82662,5.5 358.006287,5.5 L338.493713,5.5 Z M360,8.5 L360,12 L360.75,12 C361.164214,12 361.5,11.6644053 361.5,11.25774 L361.5,9.24225998 C361.5,8.83232111 361.167101,8.5 360.75,8.5 L360,8.5 Z M338.508152,6 C337.951365,6 337.5,6.45699692 337.5,7.00844055 L337.5,13.4915594 C337.5,14.0485058 337.949058,14.5 338.508152,14.5 L357.991848,14.5 C358.548635,14.5 359,14.0430031 359,13.4915594 L359,7.00844055 C359,6.45149422 358.550942,6 357.991848,6 L338.508152,6 Z" id="Battery" fill="#030303"></path>
                <rect id="Battery-Level" fill="#44DB5E" x="338" y="6.5" width="20.5" height="7.5" rx="0.5"></rect>
                <path d="M368.5,5 L364.5,10.5 L367,10.5 L365.5,15 L370,9 L367.5,9 L368.5,5 Z" id="Charge" fill="#010101"></path>
            </g>
            <g id="Group-2" transform="translate(33.000000, 48.000000)" stroke="#20C9B7" stroke-linecap="square">
                <path d="M0.5,1.5 L15.5,1.5" id="Line"></path>
                <path d="M0.5,12.5 L15.5,12.5" id="Line"></path>
            </g>
            <g id="Group" transform="translate(326.000000, 48.000000)" stroke="#20C9B7" stroke-linecap="square">
                <path d="M0.5,7.5 L15.5,7.5" id="Line"></path>
                <path d="M8,15 L8,0" id="Line"></path>
            </g>
            <path d="M-15.0013676,585.63324 C-15.0013676,585.63324 11.6296143,518.327436 34.8215351,514.83419 C70.6260509,509.441193 95.3750973,456.870247 124.477407,454.278709 C151.636498,451.860214 199.655998,480.917206 226.686056,480.917206 C247.153143,480.917206 313.308441,400.291229 339.80603,400.291229 C366.303619,400.291229 421.335266,485.327934 421.335266,485.327934 L378.409095,619.377147 L0,619.377147" id="Path-12" fill="url(#linearGradient-1)"></path>
            <path d="M0.136047173,494.730972 C0.136047173,494.730972 43.2458792,406.403037 67.3733473,406.403037 C92.885439,406.403037 115.924409,448.427288 147.123515,455.575664 C172.371031,461.360404 198.01231,423.320856 223.541011,427.98467 C242.360863,431.422851 263.951762,494.730972 305.470134,512.053146 C346.988505,529.37532 419.823924,494.730972 419.823924,494.730972 L376.897753,618.780184 L-1.51134201,618.780184" id="Path-12" fill-opacity="0.7" fill="url(#linearGradient-2)"></path>
            <rect id="Rectangle-6" fill="#4A4A4A" x="0" y="619" width="375" height="48"></rect>
            <text id="AM-I-OK?" font-family="Avenir-Light, Avenir" font-size="12" font-weight="300" letter-spacing="1" fill="#FFFFFF">
                <tspan x="158.299589" y="646">AM I OK?</tspan>
            </text>
            <g id="Group-6" transform="translate(33.000000, 120.000000)" fill="#000000">
                <path d="M79.3593309,9.93187447 L56.9132181,32.3943937 C56.6343096,32.6733021 56.293057,32.8275221 55.939773,32.9259604 L55.939773,32.9631481 L45,35.0008203 L47.0540785,24.0785475 L47.0923601,24.0785475 C47.1886108,23.7263572 47.3439246,23.3840108 47.622833,23.1061961 L70.0689459,0.641489387 C70.924265,-0.213829796 72.3133384,-0.213829796 73.1675638,0.641489387 L79.3593309,6.83544403 C80.2135564,7.69076321 80.2135564,9.07655529 79.3593309,9.93187447 L79.3593309,9.93187447 L79.3593309,9.93187447 Z M50.594575,31.7261072 C49.9339448,30.8587567 49.1595637,30.0854694 48.293307,29.4248393 L47.7037711,32.3156431 L50.594575,31.7261072 L50.594575,31.7261072 L50.594575,31.7261072 Z M49.3761279,24.0785475 L48.5262775,28.2654552 C49.7819124,29.1470246 50.8723896,30.2364081 51.7528653,31.4909491 L55.939773,30.6421925 L55.9452418,30.6235986 C54.725701,27.6562317 52.3620888,25.2926195 49.3947218,24.0730787 L49.3761279,24.0785475 L49.3761279,24.0785475 L49.3761279,24.0785475 Z M72.3899015,2.94931992 C71.9633357,2.52275408 71.2698927,2.52275408 70.8433269,2.94931992 L50.4458238,23.3435417 C51.1709857,23.6869819 51.8469285,24.1037039 52.4900585,24.5674576 L73.2495957,3.80901413 L72.3899015,2.94931992 L72.3899015,2.94931992 L72.3899015,2.94931992 Z M74.022883,4.58230142 L53.3552215,25.2466816 C53.8627255,25.6819975 54.3352292,26.1545012 54.7716388,26.6630989 L75.436019,5.99543746 L74.022883,4.58230142 L74.022883,4.58230142 L74.022883,4.58230142 Z M77.0340003,7.5934187 L76.2093063,6.76872476 L55.4508629,27.5282619 C55.9047727,28.1582669 56.3160259,28.8167095 56.6550911,29.5232775 L77.0340003,9.1421808 C77.4638474,8.71452121 77.4638474,8.02217205 77.0340003,7.5934187 L77.0340003,7.5934187 L77.0340003,7.5934187 Z" id="Shape"></path>
                <path d="M260.947078,27.6565927 C260.947078,27.6565927 258.176276,26.8356574 255.148421,26.8356574 C252.571671,26.8356574 247.397562,27.429873 245.910857,27.6072044 L245.910857,9.95184498 C245.910857,9.89895668 245.898801,9.84917945 245.880524,9.80290219 C247.06001,9.35607382 250.806135,8.05292163 254.378818,8.05292163 C258.689603,8.05292163 260.947467,9.95184498 260.947467,9.95184498 L260.947467,27.6565927 L260.947078,27.6565927 L260.947078,27.6565927 Z M230.053311,27.6565927 L230.053311,9.95184498 C230.053311,9.95184498 232.311174,8.05292163 236.622349,8.05292163 C240.194642,8.05292163 243.940378,9.35607382 245.119865,9.80290219 C245.101977,9.84917945 245.089921,9.89895668 245.089921,9.95184498 L245.089921,27.6072044 C243.603216,27.429873 238.428329,26.8356574 235.852746,26.8356574 C232.824113,26.8356574 230.053311,27.6565927 230.053311,27.6565927 L230.053311,27.6565927 L230.053311,27.6565927 Z M262.268508,8.38075132 C261.979178,8.1369207 259.295486,6 254.378818,6 C250.768025,6 247.078677,7.18065355 245.500194,7.7538694 C243.921712,7.18065355 240.232753,6 236.62196,6 C231.704514,6 229.0216,8.1369207 228.731492,8.38075132 C228.267941,8.77041366 228,9.34557394 228,9.95184498 L228,27.6565927 C228,28.3040855 228.305663,28.9142454 228.824435,29.3015744 C229.183376,29.5695159 229.615426,29.7095143 230.053311,29.7095143 C230.248142,29.7095143 230.444528,29.6822924 230.636248,29.6247375 C230.658415,29.6181265 233.177609,28.8881901 235.852357,28.8881901 C238.719992,28.8881901 245.182865,29.6857924 245.247808,29.6935701 C245.331419,29.7036811 245.415806,29.7091255 245.500194,29.7091255 C245.584194,29.7091255 245.66897,29.7036811 245.752581,29.6935701 C245.817524,29.6854035 252.282341,28.8881901 255.148421,28.8881901 C257.846891,28.8881901 260.339252,29.6177376 260.36414,29.6247375 C260.555472,29.6819035 260.752247,29.7095143 260.947078,29.7095143 C261.384962,29.7095143 261.816235,29.5699048 262.175176,29.3015744 C262.694726,28.9142454 263,28.3040855 263,27.6565927 L263,9.95184498 C263,9.34557394 262.732447,8.77041366 262.268508,8.38075132 L262.268508,8.38075132 L262.268508,8.38075132 Z" id="Shape"></path>
                <g id="Group-3" transform="translate(236.000000, 130.000000)">
                    <path d="M8.94444444,35 C13.7666667,35 17.6944444,31.0722222 17.6944444,26.25 L17.6944444,8.75 C17.6944444,3.92777778 13.7666667,0 8.94444444,0 C4.12222222,0 0.194444444,3.92777778 0.194444444,8.75 L0.194444444,26.25 C0.194444444,31.0722222 4.12222222,35 8.94444444,35 L8.94444444,35 Z M2.13888889,18.0055556 L15.75,18.0055556 L15.75,26.2888889 C15.75,29.9833333 12.6777778,33.0555556 8.94444444,33.0555556 C5.21111111,33.0555556 2.13888889,29.9833333 2.13888889,26.25 L2.13888889,18.0055556 L2.13888889,18.0055556 Z M8.94444444,1.94444444 C12.6777778,1.94444444 15.75,5.01666667 15.75,8.75 L15.75,17.0333333 L2.13888889,17.0333333 L2.13888889,8.75 C2.13888889,5.01666667 5.21111111,1.94444444 8.94444444,1.94444444 L8.94444444,1.94444444 Z" id="Shape"></path>
                    <path d="M4.08333333,13.6111111 C4.35555556,13.6111111 4.58888889,13.3777778 4.58888889,13.1055556 L4.58888889,8.75 C4.58888889,6.33888889 6.53333333,4.35555556 8.98333333,4.35555556 C9.25555556,4.35555556 9.48888889,4.12222222 9.48888889,3.85 C9.48888889,3.57777778 9.25555556,3.34444444 8.98333333,3.34444444 C6.02777778,3.34444444 3.61666667,5.75555556 3.61666667,8.71111111 L3.61666667,13.1055556 C3.61666667,13.3777778 3.81111111,13.6111111 4.08333333,13.6111111 L4.08333333,13.6111111 Z" id="Shape"></path>
                </g>
                <g id="Group-4" transform="translate(43.000000, 130.000000)">
                    <path d="M39.2633088,33.1110294 L2.49838235,33.1110294 L9.70735294,22.7716176 L12.6370588,27.1476471 C12.8017647,27.3941912 13.0833088,27.5357353 13.3792647,27.5208088 C13.6747059,27.5058824 13.9408088,27.3370588 14.0808088,27.0766176 L18.2535294,19.2536029 L21.245,24.5725735 C21.3968382,24.8417647 21.6886765,25.0059559 21.9944118,25.0018382 C22.3042647,24.9956618 22.5852941,24.8206618 22.7278676,24.5463235 L26.4388971,17.3594853 C25.8855882,17.2076471 25.3713971,16.9616176 24.9143382,16.6388971 L21.9475735,22.3840441 L18.9689706,17.0872059 C18.8181618,16.8190441 18.5288971,16.6553676 18.2247059,16.6579412 C17.9174265,16.6610294 17.6358824,16.8324265 17.49125,17.1036765 L13.2557353,25.0430147 L10.42125,20.8095588 C10.2663235,20.5784559 10.0074265,20.4384559 9.72897059,20.4358824 L9.72125,20.4358824 C9.44588235,20.4358824 9.1875,20.5707353 9.03,20.7961765 L1.72632353,31.2725 L1.72632353,1.04691176 C1.72632353,0.581617647 1.34904412,0.204338235 0.88375,0.204338235 C0.418455882,0.204338235 0.0411764706,0.581617647 0.0411764706,1.04691176 L0.0411764706,33.9515441 L0.0411764706,33.9536029 C0.0411764706,33.9638971 0.0422058824,33.9726471 0.0427205882,33.9829412 C0.0432352941,33.9978676 0.04375,34.0143382 0.0452941176,34.0292647 C0.0463235294,34.0441912 0.0488970588,34.0596324 0.0509558824,34.0735294 C0.0530147059,34.0853676 0.0545588235,34.0977206 0.0566176471,34.1095588 C0.0591911765,34.1255147 0.0638235294,34.1414706 0.0674264706,34.1579412 C0.07,34.1682353 0.0725735294,34.1790441 0.0756617647,34.1893382 C0.0802941176,34.2052941 0.0859558824,34.2207353 0.0911029412,34.2366912 C0.0947058824,34.2469853 0.0983088235,34.2567647 0.101911765,34.2670588 C0.108088235,34.2809559 0.114264706,34.2953676 0.120441176,34.3102941 C0.125588235,34.3205882 0.13125,34.3324265 0.136911765,34.3422059 C0.143088235,34.3550735 0.150294118,34.3663971 0.156985294,34.3782353 C0.164191176,34.3900735 0.170882353,34.4024265 0.178602941,34.4142647 C0.185808824,34.4245588 0.1925,34.4343382 0.200220588,34.4446324 C0.208970588,34.4575 0.217720588,34.4698529 0.226985294,34.4806618 C0.234705882,34.4909559 0.242941176,34.4997059 0.251691176,34.51 C0.261470588,34.5202941 0.270735294,34.5311029 0.281029412,34.5419118 C0.291838235,34.5522059 0.302132353,34.5619853 0.312426471,34.57125 C0.321691176,34.5805147 0.330955882,34.5892647 0.340735294,34.5975 C0.354632353,34.6093382 0.369558824,34.6206618 0.384485294,34.6304412 C0.390661765,34.6355882 0.395808824,34.6407353 0.401985294,34.6443382 C0.403014706,34.6453676 0.404044118,34.6453676 0.405073529,34.6463971 C0.436985294,34.6685294 0.470955882,34.6886029 0.506985294,34.7055882 C0.513676471,34.7097059 0.520367647,34.7127941 0.526544118,34.7158824 C0.561544118,34.7318382 0.597573529,34.7472794 0.634632353,34.7580882 C0.635147059,34.7591176 0.635147059,34.7591176 0.635661765,34.7591176 C0.670661765,34.7699265 0.706691176,34.7771324 0.74375,34.7833088 C0.753014706,34.7853676 0.762279412,34.7874265 0.771544118,34.7884559 C0.807573529,34.7925735 0.844117647,34.7966912 0.881176471,34.7966912 L0.882720588,34.7966912 L0.882720588,34.7966912 L0.882720588,34.7966912 L39.2622794,34.7966912 C39.7275735,34.7966912 40.1043382,34.4188971 40.1043382,33.9541176 C40.1053676,33.4877941 39.7291176,33.1110294 39.2633088,33.1110294 L39.2633088,33.1110294 Z" id="Shape"></path>
                    <path d="M24.4284559,12.8784559 C24.4315441,12.9191176 24.4346324,12.9602941 24.43875,13.0009559 C24.4418382,13.0236029 24.4444118,13.0457353 24.4480147,13.0683824 C24.4531618,13.1054412 24.4583088,13.1430147 24.4639706,13.1795588 C24.4675735,13.2022059 24.4722059,13.2253676 24.4758088,13.2480147 C24.4830147,13.2845588 24.4897059,13.3211029 24.4984559,13.3571324 C24.5030882,13.3792647 24.5082353,13.4003676 24.5128676,13.4219853 C24.5226471,13.4600735 24.5324265,13.4971324 24.5427206,13.5341912 C24.5483824,13.55375 24.5535294,13.5727941 24.5591912,13.5923529 C24.5715441,13.6340441 24.5854412,13.6752206 24.5993382,13.7158824 C24.6044853,13.7297794 24.6091176,13.7441912 24.6132353,13.7580882 C24.6538971,13.8702941 24.6997059,13.9799265 24.7522059,14.0864706 C24.7542647,14.0900735 24.7552941,14.0936765 24.7573529,14.0972794 C24.7815441,14.1461765 24.8067647,14.1940441 24.8330147,14.2419118 C24.8386765,14.2516912 24.8438235,14.2614706 24.8494853,14.2707353 C24.8731618,14.3119118 24.8973529,14.3530882 24.9225735,14.3927206 C24.9297794,14.4040441 24.9364706,14.4148529 24.9436765,14.4256618 C24.9683824,14.4642647 24.9946324,14.5028676 25.0208824,14.5409559 C25.0280882,14.55125 25.0347794,14.5610294 25.0419853,14.5708088 C25.0708088,14.6104412 25.0996324,14.6490441 25.13,14.6871324 C25.1361765,14.6943382 25.1413235,14.7020588 25.1475,14.7092647 C25.1814706,14.7525 25.2180147,14.7952206 25.2540441,14.8363971 C25.2555882,14.8379412 25.2571324,14.84 25.2586765,14.8415441 C25.75125,15.3938235 26.4265441,15.7798529 27.1893382,15.9054412 L27.1893382,15.9054412 L27.1908824,15.9054412 C27.27375,15.9188235 27.3581618,15.9296324 27.4436029,15.9368382 C27.4544118,15.9373529 27.4657353,15.9383824 27.4770588,15.9394118 C27.5604412,15.9455882 27.6448529,15.9497059 27.7308088,15.9497059 C29.5605882,15.9497059 31.0439706,14.4668382 31.0439706,12.6370588 C31.0439706,12.5804412 31.0424265,12.5233088 31.0393382,12.4672059 C31.0383088,12.4445588 31.0357353,12.4219118 31.0341912,12.3997794 C31.0316176,12.3663235 31.0295588,12.3328676 31.0264706,12.2988971 C31.0233824,12.2726471 31.0192647,12.2463971 31.0161765,12.2201471 C31.0120588,12.1913235 31.0089706,12.1625 31.0053676,12.1341912 C31.0002206,12.10125 30.9940441,12.0683088 30.9878676,12.0353676 C30.98375,12.0142647 30.9806618,11.9931618 30.9770588,11.9715441 C30.9688235,11.9339706 30.9600735,11.8963971 30.9508088,11.8593382 C30.9472059,11.8438971 30.9441176,11.8274265 30.94,11.8125 C30.9291912,11.7697794 30.9168382,11.7280882 30.9044853,11.6863971 C30.9013971,11.6761029 30.8988235,11.6658088 30.8957353,11.6555147 C30.8818382,11.6107353 30.8658824,11.5664706 30.8504412,11.5222059 C30.8483824,11.5160294 30.8458088,11.5093382 30.84375,11.5026471 C30.8267647,11.4563235 30.80875,11.4105147 30.7902206,11.3652206 C30.7881618,11.3611029 30.7866176,11.3569853 30.7845588,11.3528676 C30.7644853,11.3044853 30.7428676,11.2561029 30.7202206,11.20875 C30.7197059,11.2082353 30.7197059,11.2077206 30.7191912,11.2072059 C30.3115441,10.3558824 29.5502941,9.70683824 28.6269118,9.44794118 L28.6269118,9.44794118 C28.6263971,9.44794118 28.6258824,9.44794118 28.6253676,9.44742647 C28.4858824,9.40830882 28.3422794,9.37794118 28.1961029,9.35786765 C28.1878676,9.35683824 28.1801471,9.35580882 28.1719118,9.35426471 C28.1122059,9.34654412 28.0514706,9.34036765 27.9902206,9.33522059 C27.9742647,9.33419118 27.9577941,9.33264706 27.9408088,9.33161765 C27.8708088,9.3275 27.8013235,9.32441176 27.7302941,9.32441176 C25.9005147,9.32441176 24.4171324,10.8077941 24.4171324,12.6370588 C24.4171324,12.6988235 24.4191912,12.7595588 24.4227941,12.8202941 C24.4248529,12.8393382 24.4269118,12.8583824 24.4284559,12.8784559 L24.4284559,12.8784559 Z" id="Shape"></path>
                    <path d="M34.1064706,2.50867647 C34.3200735,2.09536765 34.1579412,1.58683824 33.7446324,1.37323529 C33.3313235,1.16014706 32.8233088,1.32176471 32.6097059,1.73558824 L29.3644853,8.02014706 C29.9033824,8.21161765 30.3990441,8.49367647 30.8329412,8.84933824 L34.1064706,2.50867647 L34.1064706,2.50867647 Z" id="Shape"></path>
                </g>
                <text id="ACTIVITIES" font-family="Avenir-Light, Avenir" font-size="12" font-weight="300" letter-spacing="1">
                    <tspan x="27.146" y="64">ACTIVITIES</tspan>
                </text>
                <text id="MY-MOOD" font-family="Avenir-Light, Avenir" font-size="12" font-weight="300" letter-spacing="1">
                    <tspan x="28.874" y="194">MY MOOD</tspan>
                </text>
                <text id="MEDICATION" font-family="Avenir-Light, Avenir" font-size="12" font-weight="300" letter-spacing="1">
                    <tspan x="203" y="194">MEDICATION</tspan>
                </text>
                <text id="JOURNAL" font-family="Avenir-Light, Avenir" font-size="12" font-weight="300" letter-spacing="1">
                    <tspan x="214.664" y="58">JOURNAL</tspan>
                </text>
            </g>
            <rect id="Rectangle-11" fill="#20C9B7" x="33" y="368" width="10" height="10"></rect>
            <text id="MY-MOOD" font-family="Avenir-Light, Avenir" font-size="10" font-weight="300" letter-spacing="0.833333313" fill="#000000">
                <tspan x="53" y="376">MY MOOD</tspan>
            </text>
            <rect id="Rectangle-11" fill="#EFDF31" x="158" y="368" width="10" height="10"></rect>
            <text id="MY-MOOD" font-family="Avenir-Light, Avenir" font-size="10" font-weight="300" letter-spacing="0.833333313" fill="#000000">
                <tspan x="178" y="376">MY MOOD</tspan>
            </text>
            <circle id="Oval-9" fill="#20C9B7" cx="188" cy="55" r="13"></circle>
            <circle id="Oval-10" fill="#DE4646" cx="289" cy="253" r="8"></circle>
            <text id="1" font-family="SourceSansPro-Regular, Source Sans Pro" font-size="10" font-weight="normal" fill="#FFFFFF">
                <tspan x="286.515" y="256">1</tspan>
            </text>
        </g>
    </g>
</svg>