<?xml version="1.0" encoding="UTF-8" standalone="no"?>
<svg width="546px" height="782px" viewBox="0 0 546 782" version="1.1" xmlns="http://www.w3.org/2000/svg" xmlns:xlink="http://www.w3.org/1999/xlink">
    <!-- Generator: Sketch 3.6.1 (26313) - http://www.bohemiancoding.com/sketch -->
    <title>CALENDAR</title>
    <desc>Created with Sketch.</desc>
    <defs>
        <filter x="-50%" y="-50%" width="200%" height="200%" filterUnits="objectBoundingBox" id="filter-1">
            <feOffset dx="0" dy="0" in="SourceAlpha" result="shadowOffsetOuter1"></feOffset>
            <feGaussianBlur stdDeviation="20" in="shadowOffsetOuter1" result="shadowBlurOuter1"></feGaussianBlur>
            <feColorMatrix values="0 0 0 0 0   0 0 0 0 0   0 0 0 0 0  0 0 0 0.105 0" in="shadowBlurOuter1" type="matrix" result="shadowMatrixOuter1"></feColorMatrix>
            <feMerge>
                <feMergeNode in="shadowMatrixOuter1"></feMergeNode>
                <feMergeNode in="SourceGraphic"></feMergeNode>
            </feMerge>
        </filter>
    </defs>
    <g id="Page-1" stroke="none" stroke-width="1" fill="none" fill-rule="evenodd">
        <g id="CALENDAR">
            <rect id="Rectangle-63" fill="#FFFFFF" filter="url(#filter-1)" x="86" y="112" width="375" height="670"></rect>
            <rect id="Rectangle-1" fill="#1B1D2A" x="86" y="112" width="375" height="130"></rect>
            <text id="GROUPS" opacity="0.5" font-family="Avenir-Medium, Avenir" font-size="12" font-weight="400" letter-spacing="1" fill="#FFFFFF">
                <tspan x="122.056" y="224">GROUP</tspan>
                <tspan x="169.272" y="224">S</tspan>
            </text>
            <text font-family="Avenir-Medium, Avenir" font-size="12" font-weight="400" letter-spacing="1" fill="#FFFFFF">
                <tspan x="238.117387" y="224">CALENDA</tspan>
                <tspan x="302.465387" y="224">R</tspan>
            </text>
            <text id="ALBUMS" opacity="0.5" font-family="Avenir-Medium, Avenir" font-size="12" font-weight="400" letter-spacing="1" fill="#FFFFFF">
                <tspan x="371.386" y="224">ALBUM</tspan>
                <tspan x="417.942" y="224">S</tspan>
            </text>
            <path d="M211,241 L336,241" id="Line" stroke="#1FB0E6" stroke-width="2.5" stroke-linecap="square"></path>
            <g id="logo" transform="translate(261.000000, 154.000000)" fill="#FFFFFF">
                <g id="Layer_1">
                    <path d="M20.1216216,10.648907 C20.1176802,11.922501 19.9690315,13.1816978 19.6086712,14.4104391 C19.2100225,15.7715235 18.5810811,17.0130008 17.642455,18.0983243 C16.7626479,19.1144989 15.6522652,19.9130536 14.4009009,20.4295551 C13.5993737,20.761615 12.7578683,20.9912569 11.8969595,21.1128659 C11.062665,21.2335819 10.2182079,21.2721653 9.37612613,21.2280431 C7.99887387,21.1588261 6.67342342,20.8797429 5.42004505,20.2966583 C3.99015949,19.6371594 2.77301703,18.6024705 1.90259009,17.3064811 C1.16779279,16.2272487 0.690315315,15.0405913 0.399774775,13.778072 C0.11912378,12.5316592 0.00891623549,11.2539798 0.0720720721,9.97888579 C0.128378378,8.67594376 0.359234234,7.40456471 0.818130631,6.17748459 C1.20866936,5.10779077 1.78812872,4.1142827 2.52984234,3.24268105 C3.45264339,2.1651835 4.62977307,1.32638051 5.95833333,0.799595532 C6.75766964,0.481723293 7.59523837,0.266215126 8.45045045,0.158368644 C9.2821248,0.0503590873 10.1229078,0.0269784996 10.9594595,0.0885978428 C12.3406532,0.188270416 13.6621622,0.509991333 14.9009009,1.13294492 C16.2445561,1.80506546 17.3916478,2.80317565 18.2336712,4.03286306 C19.0219595,5.16913039 19.5287162,6.42278987 19.8220721,7.76227851 C20.0263284,8.71122667 20.1267499,9.67894452 20.1216216,10.648907 L20.1216216,10.648907 Z M16.2989865,10.6394935 C16.3020622,9.97814174 16.2354528,9.3182563 16.1002252,8.67040639 C15.901464,7.72905431 15.5653153,6.83476984 15.0304054,6.02354584 C14.2584459,4.85350058 13.2117117,4.0334168 11.8406532,3.63804892 C10.9880332,3.39605539 10.0937061,3.33025684 9.21396396,3.44479488 C8.49231466,3.52849765 7.79493017,3.75309244 7.16272523,4.10540254 C6.2134009,4.6369896 5.49831081,5.39560863 4.9634009,6.3231173 C4.28772523,7.4998074 3.96621622,8.77672381 3.89358108,10.1184274 C3.84921988,10.9245852 3.90461827,11.7330576 4.05855856,12.5260738 C4.22747748,13.4120522 4.51858108,14.2537317 4.97747748,15.0361614 C5.46452703,15.8667662 6.1036036,16.5561681 6.93975225,17.0589609 C7.66511747,17.4896283 8.48089058,17.7517455 9.32488739,17.8253322 C10.0944901,17.9050467 10.8721923,17.859397 11.6266892,17.6902205 C12.679029,17.4614939 13.6370379,16.926656 14.3761261,16.1552629 C14.9847973,15.5228958 15.4172297,14.7842113 15.7274775,13.9724336 C16.1311937,12.8970772 16.295045,11.7807444 16.2989865,10.6394935 L16.2989865,10.6394935 Z" id="Shape"></path>
                    <path d="M19.5005631,19.4959553 C19.4870495,19.3680422 19.472973,19.2406828 19.4605856,19.1138771 C19.4279279,18.7777591 19.3969595,18.4410872 19.3620495,18.1049692 C19.3526629,18.0717992 19.3722892,18.0374036 19.4059685,18.0279998 C20.2629505,17.6403842 21.1570946,17.4222121 22.1041667,17.4421466 C22.5720721,17.4515601 23.0259009,17.5340668 23.4470721,17.7461479 C24.0613739,18.0556866 24.4211712,18.5573719 24.5731982,19.2091198 C24.7460586,19.9450356 24.6525901,20.6521572 24.3265766,21.3338068 C24.0337838,21.9506693 23.6283784,22.4894549 23.1745495,23.0033224 C22.6480856,23.6008041 22.0675676,24.1467883 21.4898649,24.6944337 C21.4684685,24.714922 21.4459459,24.7343028 21.4087838,24.7680807 L21.5056306,24.7680807 L24.9149775,24.7680807 C24.9786036,24.7680807 24.9988739,24.7791554 24.9983108,24.847265 C24.9943694,25.2520464 24.9949324,25.6562741 24.9983108,26.0610555 C24.9983108,26.1203053 24.9814189,26.133595 24.9234234,26.133595 L19.286036,26.133595 C19.223536,26.133595 19.213964,26.1142142 19.213964,26.0593943 C19.2162162,25.6200966 19.2162162,25.1809836 19.213964,24.7420551 C19.2115844,24.6981745 19.2306156,24.6558065 19.2652027,24.6279854 C19.8620495,24.0958446 20.4611486,23.5670262 21.0219595,22.9977851 C21.5427928,22.4695204 22.0411036,21.921875 22.4436937,21.2983677 C22.6497748,20.9788617 22.8310811,20.6471735 22.9065315,20.2711864 C23.0456081,19.5773546 22.6998874,19.0402302 22.0056306,18.8608195 C21.5917793,18.7539484 21.1841216,18.8054459 20.7804054,18.9112096 C20.3534988,19.0310475 19.9481324,19.2154287 19.5788288,19.4577475 C19.556512,19.4768856 19.5295566,19.4900447 19.5005631,19.4959553 L19.5005631,19.4959553 Z" id="Shape"></path>
                </g>
            </g>
            <g id="Group-2" transform="translate(119.000000, 160.000000)" stroke="#FFFFFF" stroke-linecap="square">
                <path d="M0.5,1.5 L15.5,1.5" id="Line"></path>
                <path d="M0.5,12.5 L15.5,12.5" id="Line"></path>
            </g>
            <g id="Group" transform="translate(412.000000, 160.000000)" stroke="#FFFFFF" stroke-linecap="square">
                <path d="M0.5,7.5 L15.5,7.5" id="Line"></path>
                <path d="M8,15 L8,0" id="Line"></path>
            </g>
            <g id="Status-Bar/White/Charging" transform="translate(86.000000, 112.000000)">
                <path d="M9.25,13 C10.7687831,13 12,11.7687831 12,10.25 C12,8.73121694 10.7687831,7.5 9.25,7.5 C7.73121694,7.5 6.5,8.73121694 6.5,10.25 C6.5,11.7687831 7.73121694,13 9.25,13 Z M16.25,13 C17.7687831,13 19,11.7687831 19,10.25 C19,8.73121694 17.7687831,7.5 16.25,7.5 C14.7312169,7.5 13.5,8.73121694 13.5,10.25 C13.5,11.7687831 14.7312169,13 16.25,13 Z M23.25,13 C24.7687831,13 26,11.7687831 26,10.25 C26,8.73121694 24.7687831,7.5 23.25,7.5 C21.7312169,7.5 20.5,8.73121694 20.5,10.25 C20.5,11.7687831 21.7312169,13 23.25,13 Z M23.25,12.5 C24.4926407,12.5 25.5,11.4926407 25.5,10.25 C25.5,9.00735931 24.4926407,8 23.25,8 C22.0073593,8 21,9.00735931 21,10.25 C21,11.4926407 22.0073593,12.5 23.25,12.5 Z M30.25,13 C31.7687831,13 33,11.7687831 33,10.25 C33,8.73121694 31.7687831,7.5 30.25,7.5 C28.7312169,7.5 27.5,8.73121694 27.5,10.25 C27.5,11.7687831 28.7312169,13 30.25,13 Z M30.25,12.5 C31.4926407,12.5 32.5,11.4926407 32.5,10.25 C32.5,9.00735931 31.4926407,8 30.25,8 C29.0073593,8 28,9.00735931 28,10.25 C28,11.4926407 29.0073593,12.5 30.25,12.5 Z M37.25,13 C38.7687831,13 40,11.7687831 40,10.25 C40,8.73121694 38.7687831,7.5 37.25,7.5 C35.7312169,7.5 34.5,8.73121694 34.5,10.25 C34.5,11.7687831 35.7312169,13 37.25,13 Z M37.25,12.5 C38.4926407,12.5 39.5,11.4926407 39.5,10.25 C39.5,9.00735931 38.4926407,8 37.25,8 C36.0073593,8 35,9.00735931 35,10.25 C35,11.4926407 36.0073593,12.5 37.25,12.5 Z" id="Mobile-Signal" fill="#FFFFFF"></path>
                <text id="Carrier" font-family=".AppleSystemUIFont" font-size="12" font-weight="normal" fill="#FFFFFF">
                    <tspan x="44" y="15.5">Sketch</tspan>
                </text>
                <path d="M96.1444208,12.4385043 C95.626374,11.8454456 94.8523616,11.4689119 93.987563,11.4689119 C93.1390073,11.4689119 92.3778594,11.8314341 91.8601652,12.4053177 L94.0225391,14.5 L96.1444208,12.4385043 Z M98.3234964,10.3214425 C97.2447794,9.19174563 95.7014387,8.48445596 93.987563,8.48445596 C92.2882723,8.48445596 90.7566264,9.17975893 89.6792698,10.2926936 L90.7692987,11.3486 C91.567205,10.5053708 92.713648,9.97668394 93.987563,9.97668394 C95.2768836,9.97668394 96.4356305,10.518235 97.2346215,11.3793293 L98.3234964,10.3214425 L98.3234964,10.3214425 Z M100.5,8.20687933 C98.8629578,6.53943672 96.5505699,5.5 93.987563,5.5 C91.4375103,5.5 89.1355496,6.52895605 87.5,8.18164431 L88.5895579,9.23709441 C89.9460798,7.85431655 91.8628921,6.99222798 93.987563,6.99222798 C96.1260026,6.99222798 98.0538809,7.86552609 99.4118698,9.26404272 L100.5,8.20687933 Z" id="Wi-Fi" fill="#FFFFFF"></path>
                <text id="9:41-AM" font-family=".AppleSystemUIFont" font-size="12" font-weight="normal" fill="#FFFFFF">
                    <tspan x="164.255859" y="15.5">9:41 AM</tspan>
                </text>
                <text id="100%" font-family=".AppleSystemUIFont" font-size="12" font-weight="normal" fill="#FFFFFF">
                    <tspan x="303.853516" y="15.5">100%</tspan>
                </text>
                <path d="M338.493713,5.5 C337.668758,5.5 337,6.16802155 337,7.00530324 L337,13.4946968 C337,14.3260528 337.67338,15 338.493713,15 L358.006287,15 C358.831242,15 359.5,14.3319784 359.5,13.4946968 L359.5,7.00530324 C359.5,6.17394722 358.82662,5.5 358.006287,5.5 L338.493713,5.5 Z M360,8.5 L360,12 L360.75,12 C361.164214,12 361.5,11.6644053 361.5,11.25774 L361.5,9.24225998 C361.5,8.83232111 361.167101,8.5 360.75,8.5 L360,8.5 Z M338.508152,6 C337.951365,6 337.5,6.45699692 337.5,7.00844055 L337.5,13.4915594 C337.5,14.0485058 337.949058,14.5 338.508152,14.5 L357.991848,14.5 C358.548635,14.5 359,14.0430031 359,13.4915594 L359,7.00844055 C359,6.45149422 358.550942,6 357.991848,6 L338.508152,6 Z" id="Battery" fill="#FFFFFF"></path>
                <rect id="Battery-Level" fill="#44DB5E" x="338" y="6.5" width="20.5" height="7.5" rx="0.5"></rect>
                <path d="M368.5,5 L364.5,10.5 L367,10.5 L365.5,15 L370,9 L367.5,9 L368.5,5 Z" id="Charge" fill="#FFFFFF"></path>
            </g>
            <path d="M208.5,242.5 L208.5,780.5" id="Line" stroke="#F2F2F2" stroke-linecap="square"></path>
            <path d="M460.501984,302.5 L208.498047,302.5" id="Line" stroke="#F2F2F2" stroke-linecap="square"></path>
            <text id="October" font-family="Avenir-Roman, Avenir" font-size="12" font-weight="normal" letter-spacing="0.249999985" fill="#9B9B9B">
                <tspan x="244" y="278">October</tspan>
            </text>
            <g id="Group-4" transform="translate(208.000000, 325.000000)">
                <text id="University-" font-family="Avenir-Roman, Avenir" font-size="20" font-weight="normal" letter-spacing="1.25" fill="#000000">
                    <tspan x="30" y="39.9289322">University </tspan>
                    <tspan x="30" y="66.9289322">catch up</tspan>
                </text>
                <path d="M219,3.5 L219,23.5" id="Line" stroke="#F6A623" stroke-width="2" stroke-linecap="square"></path>
                <g id="Group-5" transform="translate(31.000000, 81.000000)">
                    <g id="Group" transform="translate(55.000000, 5.000000)" stroke="#DBDBDB" fill="#DBDBDB">
                        <path d="M2.43765517,0.123152709 L9.56068966,0.123152709 C10.677931,0.123152709 11.5853793,1.02339901 11.5853793,2.1317734 L11.5853793,6.14901478 C11.5853793,7.25862069 10.677931,8.15763547 9.56068966,8.15763547 L8.18027586,8.15763547 L9.35089655,10.6071429 L6.27848276,8.15763547 L2.43765517,8.15763547 C1.32041379,8.15763547 0.412965517,7.25862069 0.412965517,6.14901478 L0.412965517,4.09359606 L0.412965517,2.1317734 C0.412965517,1.02339901 1.32041379,0.123152709 2.43765517,0.123152709 Z" id="Shape"></path>
                    </g>
                    <g id="Group" transform="translate(0.000000, 2.928932)" fill="#DBDBDB">
                        <path d="M5.13205267,5.99137451 C5.10936226,5.97936199 5.08693117,5.96748004 5.07020509,5.95716494 C4.95791997,5.8883541 4.85095088,5.7234431 4.83785527,5.57981516 C4.83539174,5.55056728 4.83357651,5.49350782 4.83357651,5.47144134 C4.85159918,5.44376032 4.89270124,5.3882677 4.91837382,5.35810584 C4.98657472,5.27793533 5.02689882,5.24346462 5.09911916,5.1275177 C5.03791988,5.04329949 4.97555366,4.94994133 4.91435437,4.8474432 C4.83137229,4.99381313 4.74372247,5.12190315 4.66631575,5.21304161 C4.65347946,5.22818783 4.57257193,5.29490954 4.55104845,5.37090178 C4.52952498,5.44676345 4.54210195,5.59404738 4.54365786,5.61062988 C4.56155087,5.80596389 4.67396566,6.01526898 4.83811459,6.16738403 C4.93678547,6.12116194 5.01743368,6.08003212 5.07214999,6.04647541 C5.09159891,6.03420175 5.11169613,6.01513841 5.13205267,5.99137451 L5.13205267,5.99137451 Z M1.97445487,9.01030338 C0.800128775,8.87829624 0.377309145,8.65214751 0.300291402,8.5813781 C0.316628499,8.3210198 0.364213536,7.95659653 0.441101619,7.72470268 C0.543532625,7.4149886 0.661911748,7.28245918 0.819966679,7.1689931 C0.899447952,7.11180306 1.32408282,6.94088581 1.69866911,6.79020703 C2.17503811,6.59852901 2.47895998,6.40019187 2.67202298,6.2817641 C2.88557218,6.1509321 3.02327056,5.83821489 3.0442754,5.61036874 C3.04479404,5.6038402 3.05866761,5.4483303 3.03662549,5.37064064 C3.02456716,5.32820511 3.00356232,5.28550844 2.97412961,5.24346462 L2.96155264,5.22792669 C2.94275201,5.20729649 2.89140685,5.14788675 2.88712809,5.14305563 C2.70729036,4.93113912 2.4689762,4.52310518 2.37095362,4.12786719 C2.23507046,3.57973071 2.12758274,2.47366495 2.58787396,1.805795 C2.83928373,1.44084945 3.23681976,1.24656001 3.76959065,1.22814951 L3.78839127,1.22710495 L3.81782398,1.22814951 C4.07506843,1.23702833 4.40090275,1.3272528 4.59396575,1.41747726 C4.62054595,1.31510971 4.65166423,1.21404786 4.68913582,1.11468344 C4.50540831,1.03229322 4.19915257,0.939326771 3.97043321,0.918566004 L3.97043321,0.905508918 L3.78865059,0.907728623 L3.76596018,0.906684056 L3.61724073,0.908250906 L3.61724073,0.918435433 C3.06048284,0.969227498 2.6348107,1.20334105 2.3508564,1.61568383 C1.70152162,2.55801373 2.04460066,4.04364898 2.08570272,4.20986569 C2.19708023,4.65902945 2.45912208,5.11015177 2.67318991,5.36215353 C2.68356267,5.37429662 2.72168257,5.41816843 2.7433357,5.44245461 C2.74930004,5.451464 2.75189323,5.45720912 2.75254153,5.45747026 C2.7548754,5.4805813 2.75293051,5.54717244 2.75033732,5.57890116 C2.73698239,5.72318196 2.63831151,5.93601246 2.52602638,6.00482331 C2.35344959,6.11071628 2.03928462,6.31323168 1.59546015,6.49172205 C1.08006364,6.69919914 0.758897054,6.83016172 0.656077071,6.90406483 C0.416595974,7.07615722 0.273581545,7.28298146 0.162852332,7.61763458 C0.047974015,7.96430021 0.003630466,8.58934292 0.001815233,8.6239442 L0,8.65606463 L0.010113441,8.68635707 C0.0525120976,8.81523051 0.406093554,9.16045987 1.95059752,9.33020199 C1.95500594,9.25943258 1.96278551,9.14635821 1.97445487,9.01030338 L1.97445487,9.01030338 Z M11.6532772,9.56026784 L11.590522,9.61876359 C11.4101657,9.79268397 10.8614467,10.3218877 6.98203442,10.3218877 C4.36148627,10.3218877 2.80920273,10.0872518 2.36823077,9.62463928 L2.31027297,9.56836324 L2.31481106,9.50111924 C2.33011088,9.26778911 2.39001357,8.47992454 2.51254179,8.13482576 C2.66437307,7.70642276 2.85056411,7.5144836 3.08356223,7.35805971 C3.18430766,7.290424 3.56187613,7.07106496 4.09218348,6.87168325 C4.68381978,6.64905993 5.13607212,6.41455467 5.41120958,6.25695564 C5.61140385,6.14231442 5.88615233,5.57002234 5.80770833,5.34726845 C5.78903736,5.29425668 5.72083646,5.21460846 5.65652535,5.14370848 C5.65587706,5.14292506 5.6550991,5.14214163 5.65458046,5.14148878 C5.65328387,5.14018307 5.65198727,5.13874679 5.65082033,5.13744108 C5.39876227,4.86010857 5.06488905,4.32594318 4.92744998,3.808752 C4.73944371,3.10092737 4.59448439,1.66830389 5.24330053,0.788125715 C5.61036657,0.290520165 6.18281326,0.0258530304 6.94469249,0.00130570861 L6.96556767,0 L7.02015432,0.00130570861 C7.78190388,0.0257224595 8.35435057,0.290389594 8.72102764,0.787995144 C9.36997344,1.6677816 9.22501412,3.1007968 9.03726716,3.808752 C8.89969843,4.3263349 8.56478794,4.86128371 8.31195192,5.13939964 C8.17490182,5.29033956 8.15687915,5.33173052 8.15623086,5.35105501 C8.15117414,5.53920762 8.32219502,6.12468736 8.55350756,6.25708621 C8.82825604,6.41468524 9.2801194,6.64905993 9.872404,6.87181382 C10.4023224,7.07106496 10.7800205,7.29029343 10.8808956,7.35819028 C11.1138937,7.51461417 11.3002144,7.70668391 11.451916,8.13495633 C11.5735366,8.47770484 11.6334393,9.25995486 11.6489985,9.49158757 L11.6532772,9.56026784 L11.6532772,9.56026784 Z" id="Shape"></path>
                    </g>
                    <text id="4" font-family="Avenir-Roman, Avenir" font-size="12" font-weight="normal" letter-spacing="0.249999985" fill="#9B9B9B">
                        <tspan x="22" y="12.9289322">4</tspan>
                    </text>
                    <text id="5" font-family="Avenir-Roman, Avenir" font-size="12" font-weight="normal" letter-spacing="0.249999985" fill="#9B9B9B">
                        <tspan x="77" y="13">5</tspan>
                    </text>
                </g>
                <path d="M252.501984,125.5 L0.498046875,125.5" id="Line" stroke="#F2F2F2" stroke-linecap="square"></path>
                <text id="14:30" font-family="Avenir-Roman, Avenir" font-size="12" font-weight="normal" letter-spacing="0.249999985" fill="#9B9B9B">
                    <tspan x="30" y="12">14:30</tspan>
                </text>
            </g>
            <g id="Group-4" transform="translate(208.000000, 478.000000)">
                <text id="Grandparents" font-family="Avenir-Roman, Avenir" font-size="20" font-weight="normal" letter-spacing="1.25" fill="#000000">
                    <tspan x="30" y="39.9289322">Grandparents</tspan>
                    <tspan x="30" y="66.9289322">New York</tspan>
                </text>
                <path d="M219,3.5 L219,23.5" id="Line" stroke="#BD0FE1" stroke-width="2" stroke-linecap="square"></path>
                <g id="Group-5" transform="translate(31.000000, 81.000000)">
                    <g id="Group" transform="translate(55.000000, 5.000000)" stroke="#DBDBDB" fill="#DBDBDB">
                        <path d="M2.43765517,0.123152709 L9.56068966,0.123152709 C10.677931,0.123152709 11.5853793,1.02339901 11.5853793,2.1317734 L11.5853793,6.14901478 C11.5853793,7.25862069 10.677931,8.15763547 9.56068966,8.15763547 L8.18027586,8.15763547 L9.35089655,10.6071429 L6.27848276,8.15763547 L2.43765517,8.15763547 C1.32041379,8.15763547 0.412965517,7.25862069 0.412965517,6.14901478 L0.412965517,4.09359606 L0.412965517,2.1317734 C0.412965517,1.02339901 1.32041379,0.123152709 2.43765517,0.123152709 Z" id="Shape"></path>
                    </g>
                    <g id="Group" transform="translate(0.000000, 2.928932)" fill="#DBDBDB">
                        <path d="M5.13205267,5.99137451 C5.10936226,5.97936199 5.08693117,5.96748004 5.07020509,5.95716494 C4.95791997,5.8883541 4.85095088,5.7234431 4.83785527,5.57981516 C4.83539174,5.55056728 4.83357651,5.49350782 4.83357651,5.47144134 C4.85159918,5.44376032 4.89270124,5.3882677 4.91837382,5.35810584 C4.98657472,5.27793533 5.02689882,5.24346462 5.09911916,5.1275177 C5.03791988,5.04329949 4.97555366,4.94994133 4.91435437,4.8474432 C4.83137229,4.99381313 4.74372247,5.12190315 4.66631575,5.21304161 C4.65347946,5.22818783 4.57257193,5.29490954 4.55104845,5.37090178 C4.52952498,5.44676345 4.54210195,5.59404738 4.54365786,5.61062988 C4.56155087,5.80596389 4.67396566,6.01526898 4.83811459,6.16738403 C4.93678547,6.12116194 5.01743368,6.08003212 5.07214999,6.04647541 C5.09159891,6.03420175 5.11169613,6.01513841 5.13205267,5.99137451 L5.13205267,5.99137451 Z M1.97445487,9.01030338 C0.800128775,8.87829624 0.377309145,8.65214751 0.300291402,8.5813781 C0.316628499,8.3210198 0.364213536,7.95659653 0.441101619,7.72470268 C0.543532625,7.4149886 0.661911748,7.28245918 0.819966679,7.1689931 C0.899447952,7.11180306 1.32408282,6.94088581 1.69866911,6.79020703 C2.17503811,6.59852901 2.47895998,6.40019187 2.67202298,6.2817641 C2.88557218,6.1509321 3.02327056,5.83821489 3.0442754,5.61036874 C3.04479404,5.6038402 3.05866761,5.4483303 3.03662549,5.37064064 C3.02456716,5.32820511 3.00356232,5.28550844 2.97412961,5.24346462 L2.96155264,5.22792669 C2.94275201,5.20729649 2.89140685,5.14788675 2.88712809,5.14305563 C2.70729036,4.93113912 2.4689762,4.52310518 2.37095362,4.12786719 C2.23507046,3.57973071 2.12758274,2.47366495 2.58787396,1.805795 C2.83928373,1.44084945 3.23681976,1.24656001 3.76959065,1.22814951 L3.78839127,1.22710495 L3.81782398,1.22814951 C4.07506843,1.23702833 4.40090275,1.3272528 4.59396575,1.41747726 C4.62054595,1.31510971 4.65166423,1.21404786 4.68913582,1.11468344 C4.50540831,1.03229322 4.19915257,0.939326771 3.97043321,0.918566004 L3.97043321,0.905508918 L3.78865059,0.907728623 L3.76596018,0.906684056 L3.61724073,0.908250906 L3.61724073,0.918435433 C3.06048284,0.969227498 2.6348107,1.20334105 2.3508564,1.61568383 C1.70152162,2.55801373 2.04460066,4.04364898 2.08570272,4.20986569 C2.19708023,4.65902945 2.45912208,5.11015177 2.67318991,5.36215353 C2.68356267,5.37429662 2.72168257,5.41816843 2.7433357,5.44245461 C2.74930004,5.451464 2.75189323,5.45720912 2.75254153,5.45747026 C2.7548754,5.4805813 2.75293051,5.54717244 2.75033732,5.57890116 C2.73698239,5.72318196 2.63831151,5.93601246 2.52602638,6.00482331 C2.35344959,6.11071628 2.03928462,6.31323168 1.59546015,6.49172205 C1.08006364,6.69919914 0.758897054,6.83016172 0.656077071,6.90406483 C0.416595974,7.07615722 0.273581545,7.28298146 0.162852332,7.61763458 C0.047974015,7.96430021 0.003630466,8.58934292 0.001815233,8.6239442 L0,8.65606463 L0.010113441,8.68635707 C0.0525120976,8.81523051 0.406093554,9.16045987 1.95059752,9.33020199 C1.95500594,9.25943258 1.96278551,9.14635821 1.97445487,9.01030338 L1.97445487,9.01030338 Z M11.6532772,9.56026784 L11.590522,9.61876359 C11.4101657,9.79268397 10.8614467,10.3218877 6.98203442,10.3218877 C4.36148627,10.3218877 2.80920273,10.0872518 2.36823077,9.62463928 L2.31027297,9.56836324 L2.31481106,9.50111924 C2.33011088,9.26778911 2.39001357,8.47992454 2.51254179,8.13482576 C2.66437307,7.70642276 2.85056411,7.5144836 3.08356223,7.35805971 C3.18430766,7.290424 3.56187613,7.07106496 4.09218348,6.87168325 C4.68381978,6.64905993 5.13607212,6.41455467 5.41120958,6.25695564 C5.61140385,6.14231442 5.88615233,5.57002234 5.80770833,5.34726845 C5.78903736,5.29425668 5.72083646,5.21460846 5.65652535,5.14370848 C5.65587706,5.14292506 5.6550991,5.14214163 5.65458046,5.14148878 C5.65328387,5.14018307 5.65198727,5.13874679 5.65082033,5.13744108 C5.39876227,4.86010857 5.06488905,4.32594318 4.92744998,3.808752 C4.73944371,3.10092737 4.59448439,1.66830389 5.24330053,0.788125715 C5.61036657,0.290520165 6.18281326,0.0258530304 6.94469249,0.00130570861 L6.96556767,0 L7.02015432,0.00130570861 C7.78190388,0.0257224595 8.35435057,0.290389594 8.72102764,0.787995144 C9.36997344,1.6677816 9.22501412,3.1007968 9.03726716,3.808752 C8.89969843,4.3263349 8.56478794,4.86128371 8.31195192,5.13939964 C8.17490182,5.29033956 8.15687915,5.33173052 8.15623086,5.35105501 C8.15117414,5.53920762 8.32219502,6.12468736 8.55350756,6.25708621 C8.82825604,6.41468524 9.2801194,6.64905993 9.872404,6.87181382 C10.4023224,7.07106496 10.7800205,7.29029343 10.8808956,7.35819028 C11.1138937,7.51461417 11.3002144,7.70668391 11.451916,8.13495633 C11.5735366,8.47770484 11.6334393,9.25995486 11.6489985,9.49158757 L11.6532772,9.56026784 L11.6532772,9.56026784 Z" id="Shape"></path>
                    </g>
                    <text id="4" font-family="Avenir-Roman, Avenir" font-size="12" font-weight="normal" letter-spacing="0.249999985" fill="#9B9B9B">
                        <tspan x="22" y="12.9289322">4</tspan>
                    </text>
                    <text id="5" font-family="Avenir-Roman, Avenir" font-size="12" font-weight="normal" letter-spacing="0.249999985" fill="#9B9B9B">
                        <tspan x="77" y="13">5</tspan>
                    </text>
                </g>
                <path d="M252.501984,125.5 L0.498046875,125.5" id="Line" stroke="#F2F2F2" stroke-linecap="square"></path>
                <text id="20:00" font-family="Avenir-Roman, Avenir" font-size="12" font-weight="normal" letter-spacing="0.249999985" fill="#9B9B9B">
                    <tspan x="30" y="12">20:00</tspan>
                </text>
            </g>
            <g id="Group" transform="translate(315.000000, 275.500000) rotate(-180.000000) translate(-315.000000, -275.500000) translate(311.000000, 273.000000)" fill="#9B9B9B">
                <path d="M3.33872527,0.806935484 L3.33872527,0.806935484 L0.126435165,4.27403226 L0.748298901,4.94467742 L3.96073846,1.47790323 L7.02641758,4.7866129 L7.64813187,4.11596774 L3.96073846,0.136129032 L3.33872527,0.806935484 Z" id="Shape"></path>
            </g>
            <path d="M414,289 C421.731986,289 428,282.731986 428,275 C428,267.268014 421.731986,261 414,261 C406.268014,261 400,267.268014 400,275 C400,282.731986 406.268014,289 414,289 Z" id="Oval-22" fill="#DE4646"></path>
            <text id="3" font-family="Avenir-Medium, Avenir" font-size="12" font-weight="400" letter-spacing="0.249999985" fill="#FFFFFF">
                <tspan x="411.05847" y="279">3</tspan>
            </text>
            <g id="Group-6" transform="translate(86.000000, 280.000000)" font-family="Avenir-Roman, Avenir" font-weight="normal">
                <text id="4" font-size="24" letter-spacing="1.5" fill="#4A4A4A">
                    <tspan x="53.6401486" y="24">4</tspan>
                </text>
                <text id="OCT" font-size="16" letter-spacing="1" fill="#9B9B9B">
                    <tspan x="42.6661486" y="46">OCT</tspan>
                </text>
            </g>
            <rect id="Rectangle-13" fill="#F2F2F2" x="86" y="350" width="123" height="93"></rect>
            <g id="Group-6" transform="translate(86.000000, 370.000000)">
                <text id="5" font-family="Avenir-Roman, Avenir" font-size="24" font-weight="normal" letter-spacing="1.5" fill="#4A4A4A">
                    <tspan x="53.6401486" y="24">5</tspan>
                </text>
                <text id="OCT" font-family="Avenir-Roman, Avenir" font-size="16" font-weight="normal" letter-spacing="1" fill="#9B9B9B">
                    <tspan x="42.6661486" y="46">OCT</tspan>
                </text>
                <circle id="Oval-23" fill="#DE4646" cx="60.5" cy="61.5" r="3.5"></circle>
            </g>
            <g id="Group-6" transform="translate(86.000000, 460.000000)" font-family="Avenir-Roman, Avenir" font-weight="normal">
                <text id="6" font-size="24" letter-spacing="1.5" fill="#4A4A4A">
                    <tspan x="53.6401486" y="24">6</tspan>
                </text>
                <text id="OCT" font-size="16" letter-spacing="1" fill="#9B9B9B">
                    <tspan x="42.6661486" y="46">OCT</tspan>
                </text>
            </g>
            <g id="Group-6" transform="translate(86.000000, 550.000000)" font-family="Avenir-Roman, Avenir" font-weight="normal">
                <text id="7" font-size="24" letter-spacing="1.5" fill="#4A4A4A">
                    <tspan x="53.6401486" y="24">7</tspan>
                </text>
                <text id="OCT" font-size="16" letter-spacing="1" fill="#9B9B9B">
                    <tspan x="42.6661486" y="46">OCT</tspan>
                </text>
            </g>
            <g id="Group-6" transform="translate(86.000000, 640.000000)">
                <text id="8" font-family="Avenir-Roman, Avenir" font-size="24" font-weight="normal" letter-spacing="1.5" fill="#4A4A4A">
                    <tspan x="53.6401486" y="24">8</tspan>
                </text>
                <text id="OCT" font-family="Avenir-Roman, Avenir" font-size="16" font-weight="normal" letter-spacing="1" fill="#9B9B9B">
                    <tspan x="42.6661486" y="46">OCT</tspan>
                </text>
                <circle id="Oval-23" fill="#DE4646" cx="60.5" cy="60.5" r="3.5"></circle>
            </g>
            <g id="Group-6" transform="translate(86.000000, 730.000000)" font-family="Avenir-Roman, Avenir" font-weight="normal">
                <text id="9" font-size="24" letter-spacing="1.5" fill="#4A4A4A">
                    <tspan x="53.6401486" y="24">9</tspan>
                </text>
                <text id="OCT" font-size="16" letter-spacing="1" fill="#9B9B9B">
                    <tspan x="42.6661486" y="46">OCT</tspan>
                </text>
            </g>
        </g>
    </g>
</svg>